<?xml version="1.0" standalone="no"?>
<!DOCTYPE svg PUBLIC "-//W3C//DTD SVG 20010904//EN"
 "http://www.w3.org/TR/2001/REC-SVG-20010904/DTD/svg10.dtd">
<svg version="1.0" xmlns="http://www.w3.org/2000/svg"
 width="526.000000pt" height="526.000000pt" viewBox="0 0 526.000000 526.000000"
 preserveAspectRatio="xMidYMid meet">

<g transform="translate(0.000000,526.000000) scale(0.100000,-0.100000)"
fill="#000000" stroke="none">
<path d="M3155 3125 c-16 -7 -50 -19 -75 -26 -25 -8 -54 -23 -65 -35 -27 -28
-74 -41 -170 -47 -76 -5 -85 -8 -175 -61 -52 -32 -104 -66 -115 -76 -19 -19
-19 -20 -1 -33 15 -11 17 -17 7 -35 -6 -12 -17 -22 -24 -23 -7 0 -21 -2 -32
-4 -11 -2 -64 -10 -118 -19 -93 -15 -148 -34 -162 -56 -12 -20 4 -60 24 -60
20 0 48 -27 38 -36 -3 -4 -14 -3 -24 0 -10 4 -20 7 -22 6 -2 -1 -8 4 -13 12
-8 10 -9 10 -5 -2 2 -8 10 -14 17 -12 11 3 11 0 0 -12 -7 -9 -17 -16 -22 -16
-5 0 -21 -12 -35 -26 l-26 -26 32 -45 c17 -24 26 -41 19 -37 -7 4 -3 -4 10
-18 14 -15 20 -31 16 -41 -8 -21 -6 -21 -47 2 -59 33 -129 39 -111 9 3 -5 7
-29 9 -53 3 -56 -24 -105 -59 -105 -33 0 -56 -35 -56 -86 0 -59 26 -88 100
-108 79 -22 206 -102 221 -139 7 -16 9 -44 4 -70 -16 -96 -16 -117 0 -141 10
-14 14 -34 10 -45 -3 -10 -1 -23 6 -26 8 -5 8 -10 0 -14 -11 -7 -4 -51 9 -51
4 0 13 21 20 46 9 31 16 41 21 32 6 -9 9 -6 9 10 0 12 5 22 10 22 6 0 10 8 10
18 0 11 3 13 8 5 4 -7 26 49 51 135 24 81 50 158 57 172 17 35 69 88 91 92 14
2 19 16 24 58 16 150 135 239 280 209 46 -9 63 -20 111 -69 l58 -59 212 50
c117 27 230 56 251 64 20 8 49 15 62 15 35 0 105 49 120 83 9 23 9 37 -1 65
-16 44 -18 108 -4 117 6 4 4 15 -6 30 -8 13 -15 42 -16 64 0 26 -7 46 -19 57
-22 20 -25 40 -6 47 9 4 9 8 -1 23 -6 11 -16 29 -22 42 -5 12 -29 31 -54 41
-24 11 -47 24 -50 30 -4 6 -16 11 -26 11 -16 0 -18 5 -13 33 5 31 2 36 -32 55
-24 15 -53 22 -85 22 -26 0 -50 5 -52 11 -2 6 -28 13 -58 15 -29 2 -58 8 -64
14 -12 12 -13 12 -51 -5z m-640 -406 c10 -14 1 -21 -19 -13 -9 3 -13 10 -10
15 7 12 21 11 29 -2z m315 -4 c0 -3 -9 -15 -20 -27 -11 -12 -20 -28 -20 -35 0
-18 -15 -16 -31 3 -11 14 -11 18 4 29 9 6 13 16 9 20 -4 5 1 5 10 2 10 -3 20
-2 23 3 7 11 25 14 25 5z m-180 -57 c0 -23 -3 -29 -11 -21 -6 6 -8 20 -4 32 9
30 15 26 15 -11z m-330 -134 c-6 -14 -10 -40 -11 -57 0 -18 -3 -26 -6 -19 -7
19 7 102 17 102 6 0 5 -11 0 -26z m262 -21 c7 -5 20 -12 29 -16 18 -6 34 -80
19 -85 -6 -2 -10 -9 -10 -16 0 -17 -34 -56 -49 -56 -6 0 -11 -7 -11 -15 0 -13
-6 -11 -29 6 -16 12 -34 19 -39 15 -5 -3 -13 5 -16 19 -8 30 -26 33 -26 5 0
-11 -5 -20 -11 -20 -7 0 -9 -10 -7 -25 3 -13 0 -26 -6 -28 -24 -9 -36 6 -35
42 l2 36 7 -35 c7 -31 8 -29 7 20 0 72 -4 81 -32 74 -17 -4 -26 0 -34 14 -15
28 -14 39 7 60 14 14 34 17 119 16 56 -1 108 -6 115 -11z m18 -203 c0 -5 -4
-10 -9 -10 -6 0 -13 5 -16 10 -3 6 1 10 9 10 9 0 16 -4 16 -10z"/>
<path d="M2468 2423 c-10 -2 -18 -11 -18 -18 0 -11 8 -13 33 -8 39 7 41 9 32
22 -6 11 -17 12 -47 4z"/>
<path d="M3660 2312 c0 -6 -37 -28 -82 -50 -59 -29 -144 -55 -295 -93 -164
-40 -213 -56 -213 -68 -1 -26 -36 -97 -61 -121 -81 -77 -239 -80 -317 -7 -13
12 -33 39 -43 60 -14 27 -25 37 -37 33 -9 -2 -27 -7 -39 -11 -50 -14 -105
-191 -168 -540 -9 -49 -18 -98 -20 -107 -4 -23 22 -23 47 -1 16 14 23 15 38 5
24 -15 30 -15 30 -2 0 6 -8 10 -17 10 -14 1 -11 6 12 25 17 13 39 33 50 43 26
25 132 93 169 110 25 11 31 10 38 -3 5 -8 14 -15 19 -15 6 0 8 4 5 9 -9 13 65
24 77 12 8 -8 6 -11 -7 -11 -9 0 -14 -5 -11 -10 3 -6 23 -8 44 -5 37 4 38 4
39 -30 2 -38 -13 -47 -23 -15 -7 22 -13 24 -34 11 -9 -6 -11 -16 -7 -27 6 -15
5 -17 -5 -6 -21 20 -32 14 -25 -13 4 -14 2 -25 -4 -25 -5 0 -10 4 -10 8 0 12
-32 11 -46 -2 -8 -8 -8 -16 3 -33 14 -22 14 -22 -16 -10 -43 16 -67 0 -64 -43
1 -24 -2 -29 -10 -21 -6 6 -15 11 -19 11 -11 0 -6 -23 7 -33 6 -4 -2 -5 -17
-1 -24 5 -28 3 -28 -16 0 -16 -4 -20 -16 -16 -11 4 -15 2 -11 -8 3 -8 -1 -20
-9 -27 -12 -10 -13 -9 -8 7 5 15 4 16 -4 4 -6 -8 -9 -18 -6 -22 3 -4 -10 -21
-28 -37 -19 -17 -36 -25 -39 -19 -4 5 -23 -7 -43 -28 -36 -37 -45 -51 -26 -39
6 3 10 3 10 0 0 -3 -13 -11 -29 -16 -18 -7 -28 -16 -25 -24 4 -9 -4 -13 -23
-14 -54 -1 -63 -2 -63 -10 0 -5 -8 -11 -17 -15 -10 -3 -24 -9 -30 -12 -8 -3
-13 2 -13 14 0 13 10 24 28 31 l27 11 -32 -5 c-24 -3 -33 0 -37 13 -2 9 -7 27
-11 40 -5 16 -2 22 9 22 9 0 16 5 16 10 0 6 -6 10 -14 10 -8 0 -21 7 -30 15
-26 27 -25 2 5 -70 16 -38 29 -81 29 -95 0 -15 5 -31 11 -37 8 -8 7 -13 -1
-18 -7 -4 -17 -1 -22 6 -6 10 -7 7 -3 -10 6 -19 4 -23 -8 -18 -18 7 -29 -14
-16 -34 7 -11 14 -8 33 16 29 36 41 30 20 -9 -23 -45 -9 -42 22 3 14 23 28 41
30 41 11 0 -5 -70 -19 -84 -9 -10 -17 -22 -17 -28 0 -9 12 3 66 70 14 17 32
32 40 32 19 0 18 -12 -6 -38 -11 -12 -20 -30 -20 -42 0 -11 -4 -20 -10 -20 -5
0 -10 -7 -10 -16 0 -8 -4 -13 -9 -10 -5 3 -11 -7 -14 -22 -3 -15 -9 -36 -13
-47 -15 -41 35 15 63 71 22 45 29 51 42 41 12 -10 14 -9 9 9 -3 12 -1 28 4 37
6 12 3 22 -11 36 -11 11 -16 23 -11 26 5 3 12 0 15 -5 5 -7 12 -5 22 7 13 17
14 16 8 -10 -5 -26 7 -37 20 -17 4 6 11 8 16 5 5 -4 9 3 9 15 0 12 -4 19 -8
16 -5 -3 -6 8 -4 24 3 19 9 27 17 24 16 -7 39 32 31 52 -3 9 -11 12 -17 8 -42
-25 84 119 155 179 l48 41 -7 -33 c-5 -24 -4 -31 4 -27 6 4 11 23 11 41 0 25
6 39 23 50 32 21 83 30 92 16 5 -9 11 -9 22 1 14 11 15 10 9 -12 -7 -25 -7
-25 9 -4 10 14 23 20 36 17 22 -6 26 -43 5 -43 -8 0 -17 -8 -19 -17 -4 -17 -5
-17 -6 0 0 9 -5 17 -9 17 -5 0 -7 -15 -5 -32 3 -30 2 -31 -7 -10 -10 23 -32
22 -29 -1 4 -30 -2 -58 -10 -53 -5 3 -7 15 -4 26 6 24 -22 28 -31 5 -3 -8 -1
-15 4 -15 6 0 10 -8 10 -17 0 -15 -2 -15 -9 -4 -8 12 -15 11 -51 -3 -37 -15
-42 -15 -37 -1 4 8 2 15 -2 15 -18 0 -29 -64 -13 -73 4 -2 2 -2 -5 -1 -6 2
-13 -9 -15 -24 -2 -15 -8 -26 -14 -25 -6 1 -17 -10 -25 -25 -29 -58 -42 -73
-49 -61 -5 8 -10 4 -15 -12 -7 -22 -8 -22 -20 7 l-13 29 -1 -27 c-1 -15 -6
-30 -11 -33 -6 -4 -8 -10 -5 -15 3 -5 -2 -21 -11 -36 -17 -25 -18 -25 -31 -8
-12 16 -13 14 -15 -17 0 -19 0 -43 1 -53 1 -11 -4 -23 -11 -28 -9 -5 -3 -8 15
-8 15 0 27 4 27 10 0 5 11 12 25 16 14 3 25 12 25 19 0 8 5 17 10 20 6 3 10
-4 10 -17 0 -13 -15 -39 -36 -60 -34 -36 -62 -98 -43 -98 5 0 9 -5 9 -11 0 -5
-5 -7 -11 -3 -7 4 -10 1 -7 -7 3 -8 12 -13 19 -11 11 3 12 1 2 -9 -10 -10 -16
-10 -25 -1 -13 13 -29 16 -26 5 2 -5 -7 -18 -19 -30 -13 -13 -23 -34 -23 -47
0 -14 -12 -38 -26 -53 l-26 -28 7 35 c4 19 11 37 16 38 5 2 9 9 9 16 0 7 9 21
20 31 11 10 20 23 20 28 0 6 -9 2 -20 -8 -13 -11 -25 -15 -37 -10 -17 8 -17 8
1 13 15 3 16 6 5 13 -11 8 -8 14 14 30 16 12 27 30 27 44 0 13 5 25 11 27 7 2
7 12 -2 31 -11 24 -13 25 -25 9 -8 -11 -9 -23 -3 -34 7 -13 4 -23 -11 -38 -11
-11 -20 -24 -20 -30 0 -5 -4 -10 -10 -10 -5 0 -10 10 -10 23 0 22 0 22 -20 -3
-11 -14 -26 -38 -33 -55 -76 -162 -97 -217 -97 -247 0 -23 -6 -38 -15 -42 -8
-3 -15 -15 -15 -26 0 -12 -5 -30 -10 -41 -7 -13 -7 -19 0 -19 5 0 10 -7 10
-15 0 -8 -5 -14 -11 -13 -6 2 -14 -3 -16 -9 -3 -7 0 -13 6 -13 6 0 11 -10 10
-22 0 -22 -1 -22 -9 -3 -8 19 -9 19 -9 -2 -1 -13 -6 -23 -11 -23 -9 0 -5 93 5
127 2 7 0 15 -5 18 -6 4 -10 -6 -11 -22 0 -15 -3 -22 -6 -15 -2 6 -8 10 -13 7
-9 -5 -32 92 -32 133 0 23 -1 23 -19 -5 -21 -31 -24 -64 -9 -91 5 -9 16 -42
24 -73 12 -49 11 -61 -1 -90 -9 -21 -16 -69 -17 -121 l-1 -88 137 0 138 0 0
43 c0 23 3 60 7 82 3 23 2 37 -3 32 -5 -5 -10 -13 -10 -18 -1 -5 -2 -14 -3
-20 0 -5 -5 -7 -11 -4 -13 8 -13 51 1 76 15 29 49 61 49 47 0 -6 3 -8 7 -5 3
4 -1 15 -11 26 -14 16 -15 19 -2 24 8 3 17 1 20 -6 5 -10 3 7 -4 38 -8 34 1
47 28 41 15 -3 21 -3 15 0 -19 8 -16 19 13 66 19 30 28 37 34 27 7 -11 10 -10
16 5 8 21 51 66 57 59 6 -5 67 56 67 67 0 17 44 51 58 45 8 -3 16 3 19 15 3
11 10 20 15 20 6 0 8 -9 5 -20 -4 -16 -1 -20 11 -16 67 20 104 24 109 10 3 -8
19 -14 40 -14 43 0 151 -49 159 -72 3 -10 15 -18 28 -18 13 0 31 -12 44 -30
13 -16 31 -30 41 -30 10 0 24 -7 31 -15 15 -17 7 -19 -21 -5 -28 15 -23 -5 6
-24 31 -21 45 -20 45 2 0 14 2 15 10 2 7 -10 5 -18 -5 -26 -12 -9 -8 -17 26
-47 22 -21 47 -37 56 -37 9 0 13 -6 9 -15 -3 -8 2 -37 11 -65 15 -46 15 -52 1
-63 -9 -6 -21 -34 -27 -62 -7 -27 -19 -59 -27 -70 -15 -20 -16 -20 -29 -1 -8
10 -16 24 -18 30 -2 6 -8 7 -13 3 -4 -4 0 -23 11 -42 l18 -35 178 0 177 0 7
82 c11 118 9 160 -15 368 -15 130 -29 212 -50 275 -32 100 -43 149 -65 278
-15 84 -26 119 -77 237 -30 70 -50 100 -64 100 -7 0 -24 19 -38 43 -30 49 -75
101 -82 94 -10 -10 38 -111 75 -156 46 -56 95 -141 82 -141 -6 0 -14 6 -18 13
-4 6 -25 25 -46 40 -21 16 -34 33 -31 39 4 6 3 8 -3 5 -6 -4 -16 0 -23 8 -11
13 -10 14 6 9 16 -6 15 -2 -6 21 -22 25 -23 27 -5 21 16 -6 18 -5 7 6 -7 7
-20 13 -30 13 -10 0 -17 8 -17 20 0 13 -12 26 -35 37 -38 19 -70 23 -70 9 0
-5 -11 -4 -24 2 -13 7 -22 15 -20 19 9 14 -9 8 -28 -9 -14 -12 -23 -14 -40 -6
l-23 10 25 13 c14 8 34 15 45 17 11 2 21 8 23 13 2 5 13 5 28 0 17 -7 31 -6
44 3 27 16 25 36 -5 47 -31 12 -31 22 0 88 15 32 34 57 50 64 14 6 25 15 25
20 0 5 5 6 11 3 19 -12 59 4 59 24 0 22 40 51 70 51 12 0 24 9 29 22 5 14 10
17 15 10 13 -21 51 -13 86 18 21 17 47 29 64 30 25 0 27 3 22 25 -6 24 -5 25
38 19 50 -7 59 2 71 69 6 33 10 36 31 31 20 -5 24 -2 24 15 0 12 6 24 14 27 7
3 11 14 9 27 -5 26 8 59 42 106 32 44 33 95 3 115 -32 20 -68 29 -68 18z
m-750 -662 c0 -5 -4 -10 -10 -10 -5 0 -10 5 -10 10 0 6 5 10 10 10 6 0 10 -4
10 -10z m-80 -14 c0 -3 -4 -8 -10 -11 -5 -3 -10 -1 -10 4 0 6 5 11 10 11 6 0
10 -2 10 -4z m63 -35 c3 -14 1 -18 -9 -14 -8 3 -14 14 -14 25 0 23 16 16 23
-11z m-13 -171 c-8 -5 -19 -10 -25 -10 -5 0 -3 5 5 10 8 5 20 10 25 10 6 0 3
-5 -5 -10z m-150 -10 c0 -5 -4 -10 -9 -10 -6 0 -13 5 -16 10 -3 6 1 10 9 10 9
0 16 -4 16 -10z m214 -16 c17 -6 22 -24 8 -24 -5 0 -17 7 -28 15 -19 15 -8 20
20 9z m-474 -234 c0 -5 -5 -10 -11 -10 -5 0 -7 5 -4 10 3 6 8 10 11 10 2 0 4
-4 4 -10z m904 -90 c5 -18 0 -13 -18 15 -14 22 -26 44 -26 49 0 16 37 -38 44
-64z m-624 -101 c0 -5 -4 -9 -10 -9 -5 0 -10 7 -10 16 0 8 5 12 10 9 6 -3 10
-10 10 -16z m-54 -44 c-10 -8 -24 -11 -30 -8 -6 4 0 10 14 14 36 10 37 10 16
-6z m-66 -15 c0 -5 -5 -10 -11 -10 -5 0 -7 5 -4 10 3 6 8 10 11 10 2 0 4 -4 4
-10z m-10 -40 c0 -13 -6 -20 -17 -19 -11 0 -13 3 -5 6 6 2 12 11 12 19 0 8 2
14 5 14 3 0 5 -9 5 -20z m85 0 c-3 -5 -16 -10 -28 -10 -18 0 -19 2 -7 10 20
13 43 13 35 0z m-99 -76 c-19 -19 -20 -31 -4 -36 9 -3 8 -10 -5 -23 -10 -9
-16 -24 -13 -31 6 -16 -3 -18 -23 -5 -11 7 -11 15 -1 47 14 41 53 90 58 74 2
-6 -4 -17 -12 -26z m114 -46 c0 -6 -10 -8 -22 -4 -13 3 -32 6 -43 6 -14 0 -16
3 -7 8 16 11 72 3 72 -10z m0 -87 c0 -5 -7 -12 -16 -15 -14 -5 -15 -4 -4 9 14
17 20 19 20 6z m-243 -93 c-3 -8 -6 -5 -6 6 -1 11 2 17 5 13 3 -3 4 -12 1 -19z
m-234 -3 c-3 -9 -8 -14 -10 -11 -3 3 -2 9 2 15 9 16 15 13 8 -4z m88 -48 c-5
-7 -14 -31 -20 -54 -7 -24 -16 -43 -21 -43 -14 0 -13 9 12 66 13 29 27 50 31
47 4 -3 4 -10 -2 -16z m109 3 c0 -5 -5 -10 -11 -10 -5 0 -7 5 -4 10 3 6 8 10
11 10 2 0 4 -4 4 -10z m-176 -16 c9 -3 16 -17 16 -30 0 -28 -15 -32 -24 -7 -6
15 -9 15 -16 3 -5 -8 -6 -19 -3 -25 4 -6 2 -6 -6 1 -8 8 -9 18 -2 37 11 29 12
30 35 21z m1 -74 c3 -5 1 -10 -4 -10 -6 0 -11 5 -11 10 0 6 2 10 4 10 3 0 8
-4 11 -10z m-55 -40 c0 -5 -4 -10 -10 -10 -5 0 -10 5 -10 10 0 6 5 10 10 10 6
0 10 -4 10 -10z m45 -41 c-4 -45 -25 -79 -25 -42 0 21 19 83 26 83 2 0 1 -19
-1 -41z m72 7 c-8 -16 -14 -21 -19 -13 -11 18 -10 27 5 25 6 -2 11 3 9 10 -1
8 2 11 7 8 5 -4 5 -16 -2 -30z m-28 -82 c-12 -28 -13 -28 -17 -6 -2 13 2 30 9
39 18 21 22 2 8 -33z m-92 -6 c-3 -8 -6 -5 -6 6 -1 11 2 17 5 13 3 -3 4 -12 1
-19z m0 -40 c-3 -8 -6 -5 -6 6 -1 11 2 17 5 13 3 -3 4 -12 1 -19z m-49 -67
c-2 -21 -6 -37 -11 -34 -10 6 -5 73 5 73 5 0 7 -18 6 -39z m-18 -131 c0 -5 -2
-10 -4 -10 -3 0 -8 5 -11 10 -3 6 -1 10 4 10 6 0 11 -4 11 -10z"/>
<path d="M2260 1423 c-16 -21 -20 -36 -16 -62 3 -19 9 -37 14 -40 5 -3 11 -12
13 -19 3 -9 9 -9 27 3 23 17 28 61 13 114 -9 35 -26 36 -51 4z"/>
<path d="M2517 1443 c-12 -12 -7 -22 8 -17 8 4 15 10 15 15 0 11 -14 12 -23 2z"/>
<path d="M2435 1370 c-3 -5 -1 -10 4 -10 6 0 11 5 11 10 0 6 -2 10 -4 10 -3 0
-8 -4 -11 -10z"/>
<path d="M2781 1344 c0 -11 3 -14 6 -6 3 7 2 16 -1 19 -3 4 -6 -2 -5 -13z"/>
<path d="M2391 1333 c6 -7 19 -12 28 -12 13 1 13 2 -2 6 -9 2 -15 8 -13 12 3
4 -1 8 -9 8 -11 0 -12 -4 -4 -14z"/>
<path d="M2360 1305 c-7 -8 -17 -12 -24 -8 -7 4 -7 2 1 -7 14 -16 43 -6 43 15
0 19 -4 19 -20 0z"/>
<path d="M2745 1312 c-5 -4 -16 -17 -23 -29 -10 -19 -10 -23 3 -23 8 0 15 7
15 16 0 9 8 23 18 30 9 7 13 13 7 14 -5 0 -14 -4 -20 -8z"/>
<path d="M2253 1268 c-16 -21 -23 -48 -13 -48 6 0 10 8 10 18 0 10 5 23 12 30
7 7 9 12 6 12 -3 0 -10 -6 -15 -12z"/>
<path d="M2517 1248 c-10 -11 -16 -22 -13 -25 7 -7 46 26 46 39 0 13 -14 8
-33 -14z"/>
<path d="M2270 1240 c0 -5 5 -10 10 -10 6 0 10 5 10 10 0 6 -4 10 -10 10 -5 0
-10 -4 -10 -10z"/>
<path d="M2120 1185 c-21 -22 -22 -29 -12 -45 21 -33 13 -104 -22 -212 -35
-107 -57 -220 -33 -166 7 14 19 34 28 45 9 10 24 39 34 65 10 26 24 53 31 59
8 6 14 22 14 35 0 13 5 24 10 24 6 0 10 7 10 16 0 8 4 13 9 9 17 -10 30 30 21
66 -10 45 -49 129 -59 129 -4 0 -18 -11 -31 -25z"/>
<path d="M2175 888 c-4 -18 -16 -41 -26 -51 -24 -22 -26 -45 -3 -26 9 8 25 33
35 57 22 50 22 52 10 52 -5 0 -13 -15 -16 -32z"/>
<path d="M2142 898 c-26 -32 -123 -324 -122 -365 1 -14 29 41 30 57 0 8 6 27
14 41 7 14 16 43 20 64 6 29 10 35 17 24 7 -12 9 -12 9 1 0 8 6 27 14 42 10
20 11 28 3 31 -8 3 -6 16 8 43 16 34 27 74 20 74 -1 0 -7 -6 -13 -12z"/>
<path d="M2216 814 c-9 -24 -7 -27 9 -10 17 17 19 26 6 26 -5 0 -12 -7 -15
-16z"/>
<path d="M2351 796 c-10 -12 -8 -13 8 -9 12 3 18 9 15 14 -7 12 -10 11 -23 -5z"/>
<path d="M2197 773 c-4 -3 -7 -11 -7 -17 0 -6 5 -5 12 2 6 6 9 14 7 17 -3 3
-9 2 -12 -2z"/>
<path d="M2176 606 c-8 -19 -19 -59 -26 -90 -6 -31 -15 -56 -19 -56 -4 0 -7
-19 -8 -42 -1 -42 0 -41 23 27 13 39 28 78 34 89 8 12 8 16 1 11 -14 -8 -14 5
-1 25 5 8 10 11 10 5 1 -14 29 37 30 53 0 26 -30 10 -44 -22z"/>
<path d="M2605 600 c3 -5 12 -10 20 -10 8 0 17 5 20 10 4 6 -5 10 -20 10 -15
0 -24 -4 -20 -10z"/>
<path d="M2011 513 c-1 -6 -4 -20 -7 -30 -5 -17 -5 -17 6 0 6 10 9 23 6 30 -3
9 -5 9 -5 0z"/>
<path d="M2400 401 c0 -6 5 -13 10 -16 6 -3 10 1 10 9 0 9 -4 16 -10 16 -5 0
-10 -4 -10 -9z"/>
<path d="M2003 320 c0 -25 2 -35 4 -22 2 12 2 32 0 45 -2 12 -4 2 -4 -23z"/>
<path d="M2017 229 c4 -13 8 -18 11 -10 2 7 -1 18 -6 23 -8 8 -9 4 -5 -13z"/>
<path d="M2321 204 c0 -11 3 -14 6 -6 3 7 2 16 -1 19 -3 4 -6 -2 -5 -13z"/>
<path d="M2000 196 c0 -9 5 -16 10 -16 6 0 10 4 10 9 0 6 -4 13 -10 16 -5 3
-10 -1 -10 -9z"/>
<path d="M1971 135 c-13 -20 -23 -49 -23 -70 0 -19 -4 -35 -9 -35 -5 0 -9 -7
-9 -16 0 -12 9 -14 38 -12 l37 3 1 55 c0 30 -4 61 -10 69 -8 11 -8 13 2 7 7
-4 12 -2 12 8 0 28 -16 24 -39 -9z"/>
</g>
</svg>
